<?xml version="1.0" standalone="no"?>
<!DOCTYPE svg PUBLIC "-//W3C//DTD SVG 20010904//EN"
 "http://www.w3.org/TR/2001/REC-SVG-20010904/DTD/svg10.dtd">
<svg version="1.0" xmlns="http://www.w3.org/2000/svg"
 width="428.000000pt" height="428.000000pt" viewBox="0 0 428.000000 428.000000"
 preserveAspectRatio="xMidYMid meet">
<metadata>
Created by potrace 1.11, written by Peter Selinger 2001-2013
</metadata>
<g transform="translate(0.000000,428.000000) scale(0.100000,-0.100000)"
fill="#000000" stroke="none">
<path d="M1866 4204 c-8 -7 -16 -10 -20 -7 -3 4 -6 -1 -6 -10 0 -9 -5 -17 -11
-17 -6 0 -9 -7 -5 -15 3 -8 2 -15 -2 -15 -4 0 -6 -51 -5 -112 2 -62 3 -122 3
-133 0 -11 1 -63 1 -115 0 -52 2 -96 4 -99 3 -2 0 -10 -6 -17 -7 -8 -7 -14 1
-19 6 -4 7 -13 1 -23 -4 -9 -7 -24 -6 -32 2 -13 -54 -15 -469 -15 -443 1 -524
-3 -510 -26 3 -5 -2 -9 -10 -9 -19 0 -19 4 -20 -183 -1 -129 -3 -150 -18 -161
-10 -7 -15 -16 -11 -19 3 -4 0 -7 -8 -7 -9 0 -30 -14 -47 -31 -18 -17 -32 -28
-32 -23 0 4 -7 -1 -15 -12 -8 -10 -15 -16 -15 -12 0 4 -16 -8 -36 -27 -20 -19
-39 -35 -43 -35 -5 0 -22 -13 -39 -30 -18 -16 -36 -30 -42 -30 -5 0 -11 -4
-11 -10 -3 -19 -4 -25 -11 -35 -3 -5 -6 -503 -7 -1105 0 -602 0 -1112 -1
-1132 l0 -37 -87 -3 c-156 -6 -148 12 -149 -312 -1 -241 0 -261 18 -281 l19
-22 1872 0 1872 0 20 20 c18 20 20 36 20 280 0 224 -2 262 -16 278 -24 28 -63
39 -137 39 -37 0 -71 4 -77 8 -7 4 -10 392 -10 1127 -1 616 -3 1129 -5 1140
-6 24 -24 45 -40 45 -6 0 -8 5 -5 10 3 6 1 10 -5 10 -6 0 -8 5 -5 10 4 6 2 9
-3 8 -9 -3 -86 60 -164 133 -21 21 -44 39 -51 42 -9 3 -12 44 -11 156 1 83 -2
154 -7 157 -4 2 -6 11 -2 19 3 10 -1 15 -13 15 -9 0 -14 3 -11 7 4 3 -3 13
-16 22 -19 14 -82 16 -482 18 -483 2 -486 2 -480 13 3 5 6 64 5 110 -1 8 -1
44 -1 80 1 36 1 72 0 80 0 8 0 44 0 80 1 36 0 72 0 80 0 8 1 35 2 60 2 56 -16
104 -44 123 -31 20 -591 21 -611 1z m-641 -1584 c-3 -5 -12 -10 -18 -10 -7 0
-6 4 3 10 19 12 23 12 15 0z m1862 4 c-3 -3 -12 -4 -19 -1 -8 3 -5 6 6 6 11 1
17 -2 13 -5z m-1902 -14 c-3 -5 -14 -10 -23 -9 -14 0 -13 2 3 9 27 11 27 11
20 0z m-50 -10 c-3 -5 -12 -10 -18 -10 -7 0 -6 4 3 10 19 12 23 12 15 0z m-45
-10 c0 -5 -5 -10 -11 -10 -5 0 -7 5 -4 10 3 6 8 10 11 10 2 0 4 -4 4 -10z
m-35 -10 c-3 -5 -14 -10 -23 -9 -14 0 -13 2 3 9 27 11 27 11 20 0z m-50 -10
c-3 -5 -12 -10 -18 -10 -7 0 -6 4 3 10 19 12 23 12 15 0z m2349 -9 c4 -5 -3
-7 -14 -4 -23 6 -26 13 -6 13 8 0 17 -4 20 -9z m-2413 -24 c-10 -9 -11 -8 -5
6 3 10 9 15 12 12 3 -3 0 -11 -7 -18z m1126 -9 c-3 -8 -6 -5 -6 6 -1 11 2 17
5 13 3 -3 4 -12 1 -19z m1323 12 c0 -5 -2 -10 -4 -10 -3 0 -8 5 -11 10 -3 6
-1 10 4 10 6 0 11 -4 11 -10z m-1186 -9 c4 -5 -3 -7 -14 -4 -23 6 -26 13 -6
13 8 0 17 -4 20 -9z m-116 -46 c-3 -3 -9 2 -12 12 -6 14 -5 15 5 6 7 -7 10
-15 7 -18z m1299 -57 c-3 -8 -6 -5 -6 6 -1 11 2 17 5 13 3 -3 4 -12 1 -19z
m-975 -71 c11 -22 17 -42 14 -45 -3 -3 -6 -1 -6 5 0 6 -16 35 -36 64 -23 35
-28 47 -14 34 12 -11 31 -37 42 -58z m-331 -80 c-10 -9 -11 -8 -5 6 3 10 9 15
12 12 3 -3 0 -11 -7 -18z m357 -2 c-3 -3 -9 2 -12 12 -6 14 -5 15 5 6 7 -7 10
-15 7 -18z m-379 -42 c-8 -10 -17 -22 -22 -28 -16 -22 -42 -50 -37 -40 18 33
64 95 68 90 3 -2 -1 -12 -9 -22z m388 -95 c-3 -8 -6 -5 -6 6 -1 11 2 17 5 13
3 -3 4 -12 1 -19z m940 -20 c-3 -7 -5 -2 -5 12 0 14 2 19 5 13 2 -7 2 -19 0
-25z m-1407 11 c0 -5 -4 -8 -8 -5 -10 6 -43 -30 -35 -38 4 -3 0 -6 -7 -6 -7 0
-23 -11 -36 -26 -13 -14 -24 -22 -24 -18 0 5 -14 -11 -31 -34 -34 -47 -51 -57
-24 -14 18 29 145 151 158 152 4 0 7 -5 7 -11z m431 -140 c-17 -38 -99 -144
-101 -128 0 3 15 23 34 44 19 21 33 42 30 46 -2 4 2 9 9 12 7 3 19 25 27 48 7
24 15 39 17 33 2 -6 -5 -31 -16 -55z m58 4 c-12 -21 -26 -44 -31 -50 -6 -7 -7
-13 -2 -13 4 0 -1 -7 -12 -15 -10 -8 -15 -15 -10 -15 8 0 -32 -40 -40 -40 -2
0 15 27 36 59 22 33 45 71 52 85 6 15 15 26 19 26 5 0 -1 -17 -12 -37z m56 18
c3 -5 2 -12 -3 -15 -5 -3 -9 1 -9 9 0 17 3 19 12 6z m862 -33 c-3 -8 -6 -5 -6
6 -1 11 2 17 5 13 3 -3 4 -12 1 -19z m-1577 -32 c0 -2 -7 -9 -15 -16 -13 -11
-14 -10 -9 4 5 14 24 23 24 12z m485 -116 c-10 -11 -21 -18 -23 -15 -3 3 3 12
14 20 27 20 30 18 9 -5z m39 -27 c-49 -61 -52 -64 -70 -88 -14 -19 -14 -19 -3
5 13 26 98 130 106 130 3 0 -12 -21 -33 -47z m1053 15 c-3 -8 -6 -5 -6 6 -1
11 2 17 5 13 3 -3 4 -12 1 -19z m-1128 -37 c-8 -10 -31 -42 -51 -71 -26 -37
-37 -47 -35 -32 0 12 3 19 5 17 3 -2 21 20 40 50 20 30 40 55 45 55 5 0 3 -8
-4 -19z m1128 -63 c-3 -8 -6 -5 -6 6 -1 11 2 17 5 13 3 -3 4 -12 1 -19z
m-1127 -32 c0 -3 -4 -8 -10 -11 -5 -3 -10 -1 -10 4 0 6 5 11 10 11 6 0 10 -2
10 -4z m-433 -61 c15 -25 36 -48 46 -51 9 -3 17 -10 17 -15 0 -24 -63 38 -89
89 -20 38 -4 24 26 -23z m1560 13 c-3 -7 -5 -2 -5 12 0 14 2 19 5 13 2 -7 2
-19 0 -25z m-1141 2 c0 -12 -4 -16 -9 -11 -5 5 -6 14 -3 20 10 15 12 14 12 -9z
m275 -14 c-5 -6 -24 -20 -43 -30 l-33 -19 30 29 c28 28 66 44 46 20z m48 -75
c-24 -27 -50 -49 -58 -50 -8 -1 -11 -4 -8 -8 4 -3 -4 -14 -19 -23 -14 -10 -25
-20 -25 -24 1 -3 -2 -7 -6 -8 -17 -7 -68 -64 -64 -72 2 -5 -2 -5 -10 -1 -10 7
18 38 106 122 66 62 121 113 123 113 3 0 -15 -22 -39 -49z m106 31 c-3 -3 -11
0 -18 7 -9 10 -8 11 6 5 10 -3 15 -9 12 -12z m-285 -22 c0 -5 -5 -10 -11 -10
-5 0 -7 5 -4 10 3 6 8 10 11 10 2 0 4 -4 4 -10z m-424 -48 c-5 -4 -66 26 -66
33 0 3 16 -3 35 -12 19 -9 33 -18 31 -21z m347 3 c-10 -13 -24 -25 -31 -25 -7
0 0 11 15 25 35 31 38 31 16 0z m-135 -10 c-3 -3 -9 2 -12 12 -6 14 -5 15 5 6
7 -7 10 -15 7 -18z m612 9 c0 -8 -24 -41 -54 -72 -30 -31 -55 -60 -55 -64 -1
-5 -4 -7 -8 -5 -11 3 -4 20 10 29 7 4 9 8 5 8 -3 0 16 22 43 50 27 27 49 54
49 60 0 5 2 10 5 10 3 0 5 -7 5 -16z m-725 -34 c3 -5 1 -10 -4 -10 -6 0 -11 5
-11 10 0 6 2 10 4 10 3 0 8 -4 11 -10z m1322 -12 c-3 -8 -6 -5 -6 6 -1 11 2
17 5 13 3 -3 4 -12 1 -19z m-1190 -30 c-3 -8 -6 -5 -6 6 -1 11 2 17 5 13 3 -3
4 -12 1 -19z m-22 2 c3 -6 -1 -7 -9 -4 -18 7 -21 14 -7 14 6 0 13 -4 16 -10z
m-705 -74 c0 -3 -4 -8 -10 -11 -5 -3 -10 -1 -10 4 0 6 5 11 10 11 6 0 10 -2
10 -4z m1470 -12 c0 -2 -7 -4 -15 -4 -8 0 -15 4 -15 10 0 5 7 7 15 4 8 -4 15
-8 15 -10z m8 -55 c-3 -8 -7 -3 -11 10 -4 17 -3 21 5 13 5 -5 8 -16 6 -23z
m-1503 -18 c3 -5 2 -12 -3 -15 -5 -3 -9 1 -9 9 0 17 3 19 12 6z m1942 -123
c-3 -7 -5 -2 -5 12 0 14 2 19 5 13 2 -7 2 -19 0 -25z m0 -160 c-3 -7 -5 -2 -5
12 0 14 2 19 5 13 2 -7 2 -19 0 -25z m-436 -21 c-10 -9 -11 -8 -5 6 3 10 9 15
12 12 3 -3 0 -11 -7 -18z m-10 -80 c-10 -9 -11 -8 -5 6 3 10 9 15 12 12 3 -3
0 -11 -7 -18z m446 -69 c-3 -8 -6 -5 -6 6 -1 11 2 17 5 13 3 -3 4 -12 1 -19z
m-2436 -35 c13 -16 12 -17 -3 -4 -10 7 -18 15 -18 17 0 8 8 3 21 -13z m2429 2
c-7 -8 -17 -15 -23 -15 -6 0 -2 7 9 15 25 19 30 19 14 0z"/>
</g>
</svg>
